<svg id="Layer_1" enable-background="new 0 0 512 512" height="512" viewBox="0 0 512 512" width="512" xmlns="http://www.w3.org/2000/svg"><g><g clip-rule="evenodd" fill-rule="evenodd"><path d="m68.993 502v-102.255c-12.278 4.685-25.597 7.255-40.001 7.255v95z" fill="#e6d5cf"/><path d="m68.993 399.745v102.255h40.001v-127.675c-11.867 11.022-25.175 19.763-40.001 25.42z" fill="#e6d5cf"/><path d="m108.994 374.325v127.675h40.001v-182.074c-10.892 20.923-24.164 39.691-40.001 54.399z" fill="#e6d5cf"/><path d="m148.996 319.926v182.074h40.001v-271.997-80.003c0 49.676-12.318 116.755-40.001 169.926z" fill="#e6d5cf"/><path d="m188.997 230.003v271.997h42.003v-81.136c0-16.54 10.084-31.066 25-38.863 14.916 7.797 25 22.323 25 38.863v81.136h42.002v-271.997zm67.002 85.001c-12.426 0-22.5-10.074-22.5-22.5s10.074-22.5 22.5-22.5 22.5 10.074 22.5 22.5c0 12.427-10.073 22.5-22.5 22.5z" fill="#f0e6e2"/><circle cx="255.999" cy="292.504" fill="#ddb9a3" r="22.5"/><path d="m256 382.002c-14.916 7.797-25 22.323-25 38.863v81.135h50v-81.135c0-16.541-10.084-31.067-25-38.863z" fill="#ddb9a3"/><g fill="#e6d5cf"><path d="m188.997 230.003h134.005v-80.003l-67.003-87.999-67.002 87.999z"/><path d="m323.002 230.003v271.997h40.001v-182.074c-27.683-53.171-40.001-120.25-40.001-169.926z"/><path d="m363.003 319.926v182.074h40.001v-127.675c-15.836-14.708-29.108-33.476-40.001-54.399z"/><path d="m403.004 374.325v127.675h40.001v-102.255c-14.825-5.657-28.133-14.398-40.001-25.42z"/><path d="m443.006 399.745v102.255h40.001v-94.999c-14.404 0-27.723-2.571-40.001-7.256z"/></g></g><g><path d="m256 195.003c5.523 0 10-4.477 10-10v-42.004c0-5.523-4.477-10-10-10s-10 4.477-10 10v42.004c0 5.523 4.477 10 10 10z"/><path d="m256 260.004c-17.92 0-32.5 14.58-32.5 32.5s14.58 32.5 32.5 32.5 32.5-14.58 32.5-32.5-14.58-32.5-32.5-32.5zm0 45c-6.893 0-12.5-5.607-12.5-12.5s5.607-12.5 12.5-12.5 12.5 5.607 12.5 12.5-5.607 12.5-12.5 12.5z"/><path d="m502 492h-8.993v-84.999c0-5.523-4.477-10-10-10-10.586 0-20.578-1.599-30.001-4.538v-12.719c0-5.523-4.477-10-10-10s-10 4.477-10 10v4.034c-7.049-3.977-13.721-8.749-20.001-14.23v-15.224c0-5.523-4.477-10-10-10-3.853 0-7.192 2.182-8.862 5.376-7.815-9.756-14.855-20.664-21.14-32.371v-17.404c0-5.523-4.477-10-10-10-.923 0-1.813.135-2.662.369-18.41-45.174-27.34-97.202-27.34-140.295 0-2.188-.718-4.316-2.043-6.058l-64.958-85.315v-18.625h9.75c5.523 0 10-4.477 10-10s-4.477-10-10-10h-9.75v-10.001c0-5.523-4.477-10-10-10s-10 4.477-10 10v10.001h-9.75c-5.523 0-10 4.477-10 10s4.477 10 10 10h9.75v18.625l-64.959 85.316c-1.326 1.742-2.043 3.87-2.043 6.058 0 43.092-8.93 95.12-27.34 140.295-.849-.234-1.738-.369-2.661-.369-5.523 0-10 4.477-10 10v17.403c-6.285 11.707-13.325 22.615-21.14 32.371-1.67-3.193-5.008-5.375-8.862-5.375-5.523 0-10 4.477-10 10v15.224c-6.281 5.482-12.952 10.253-20.001 14.23v-4.034c0-5.523-4.477-10-10-10s-10 4.477-10 10v12.719c-9.424 2.939-19.416 4.538-30.001 4.538-5.523 0-10 4.477-10 10v84.998h-8.993c-5.523 0-10 4.477-10 10s4.477 10 10 10h492c5.523 0 10-4.477 10-10s-4.477-10-10-10zm-463.008 0v-75.386c6.824-.533 13.491-1.636 20.001-3.262v78.648zm40.001 0v-85.553c6.889-3.085 13.559-6.846 20.001-11.258v96.811zm40.002 0v-113.336c7.022-6.889 13.695-14.69 20.001-23.374v136.71zm40.001 0v-169.684c.574-1.128 1.153-2.247 1.718-3.394 7.251-14.713 13.292-30.104 18.283-45.601v218.679zm82.004 0v-71.135c0-10.537 5.634-20.564 15-27.175 9.365 6.611 15 16.639 15 27.175v71.135zm50 0v-71.135c0-19.646-11.636-37.934-30.367-47.725-2.902-1.518-6.364-1.518-9.265 0-18.732 9.79-30.368 28.078-30.368 47.725v71.135h-22.003v-251.997h11.999c5.523 0 10-4.477 10-10s-4.477-10-10-10h-11.999v-66.629l57.003-74.866 57.002 74.867v66.629h-12.005c-5.523 0-10 4.477-10 10s4.477 10 10 10h12.005v251.997h-22.002zm42.001 0v-218.679c4.991 15.497 11.032 30.888 18.283 45.601.565 1.147 1.144 2.266 1.718 3.394v169.684zm40.002 0v-136.71c6.307 8.684 12.98 16.485 20.001 23.374v113.336zm40.001 0v-96.811c6.442 4.411 13.112 8.173 20.001 11.258v85.553zm40.002 0v-78.648c6.51 1.625 13.177 2.728 20.001 3.262v75.386z"/><path d="m256 240.003c5.523 0 10-4.477 10-10s-4.477-10-10-10h-.007c-5.523 0-9.996 4.477-9.996 10s4.48 10 10.003 10z"/></g></g></svg>